<?xml version="1.0"?>
<svg width="1024" height="1024" xmlns="http://www.w3.org/2000/svg" xmlns:svg="http://www.w3.org/2000/svg" version="1.1">
 <g class="layer">
  <title>Layer 1</title>
  <path d="m0,-3l1024,0l0,1024l-1024,0l0,-1024z" fill="#25212f" id="svg_1"/>
  <g fill="none" id="svg_2" stroke-width="2">
   <path d="m675.7,359.91a150.54,8.29 36.8 0 0 -14.66,-10.15a319.01,208.31 -63.2 0 0 -25.97,-13.92a289.65,15.53 8.3 0 0 -11.26,-3.78a98.62,1.52 16 0 1 -11.4,-3.39" id="svg_3" stroke="#e3536e"/>
   <path d="m612.41,328.67a888.39,276.24 -46.1 0 0 -23.61,-31.73a2495.43,447.69 -69.3 0 0 -60.06,-20.17a1150.51,303.14 78 0 0 -40.98,13.32" id="svg_4" stroke="#812832"/>
   <path d="m487.76,290.09l0.64,0.24" id="svg_5" stroke="#ea7722"/>
   <path d="m488.4,290.33l-7.8,-3.65l-7.9,-3.2l-8.06,-2.78l-8.03,-2.28l-7.97,-1.78l-7.81,-1.25l-7.74,-0.75l-7.51,-0.22l-1.21,-0.34l-0.36,-0.15" id="svg_6" stroke="#e5592e"/>
   <path d="m612.41,328.67a1347.83,453.7 83.3 0 0 -64.41,1.37" id="svg_7" stroke="#874c6b"/>
   <path d="m548,330.04l-1.09,-0.18" id="svg_8" stroke="#885a60"/>
   <path d="m546.91,329.86a462.33,254.13 -83.3 0 0 -31.31,-24.96a447.04,108.43 2.3 0 0 -27.84,-14.81" id="svg_9" stroke="#8e701f"/>
   <path d="m488.4,290.33l-0.77,0.18l-0.94,0.27l-0.4,0.24a1567.7,418.93 39.1 0 0 -37.41,45.94" id="svg_10" stroke="#f1a11b"/>
   <path d="m448.88,336.96a995.57,323.98 -89.4 0 0 -45.81,-0.96l-4.25,1.08l-3.89,1.03l-2.92,0.56" id="svg_11" stroke="#e88c30"/>
   <path d="m392.01,338.67a53.93,7.16 -54.4 0 1 0.16,-1.92a1201.43,387.28 33.3 0 1 21.93,-51.02a620.44,6.55 -46.9 0 1 8.45,-10.36a72.16,5.08 -4.7 0 0 -0.07,-0.72l-0.46,-0.38" id="svg_12" stroke="#f1a11b"/>
   <path d="m546.91,329.86a136.61,5.76 -19.5 0 1 -17.17,5.79a102.26,19.1 -7.3 0 0 -8.86,3.24l-11.15,4.7l-9.14,4.32l-3.36,1.72l-7.14,3.55l-5.37,2.16" id="svg_13" stroke="#f1a950"/>
   <path d="m484.72,355.34l-9.92,-5.99l-8.91,-4.67l-8.53,-3.67l-4.26,-1.52l-4.16,-1.26" id="svg_14" stroke="#8e701f"/>
   <path d="m448.94,338.23l-0.06,-1.27" id="svg_15" stroke="#edaa24"/>
   <path d="m675.5,359.94a144.32,26.26 21.2 0 0 -1.09,3.56a312.43,23.88 71.7 0 1 -0.19,9.93a167.2,7.79 -83.4 0 0 -2.72,16.71a301.24,153.57 52.2 0 1 -6.33,24.77a135.89,26.32 75.4 0 0 -1.77,7.1a62.18,43.34 -48.7 0 1 -1.77,7.7" id="svg_16" stroke="#e376ad"/>
   <path d="m661.63,429.71l-3.67,-6.79l-4.11,-6.22l-4.61,-5.77l-5.04,-5.22l-5.16,-4.46l-5.52,-3.98l-5.96,-3.58l-6.29,-3.11l-6.79,-2.71l-7.1,-2.24l-7.56,-1.82l-7.84,-1.36a31.36,10.04 71.6 0 0 -1.47,0.06a0.4,0.4 0 0 0 -0.24,0.6a384.48,316.46 -14.8 0 1 21.03,39.92" id="svg_17" stroke="#874c6b"/>
   <path d="m611.3,423.03a162.42,8.23 14.8 0 1 -1.67,0.76a43.16,4.08 8.1 0 0 -1.75,0.31a775.62,372.45 65 0 0 -47.78,22.17a63.04,0.28 -44.3 0 0 -0.61,0.54a68.16,9.74 57.8 0 1 -1.4,0.36" id="svg_18" stroke="#e376ad"/>
   <path d="m558.09,447.17a27.35,5.31 -62.7 0 1 -0.49,-0.68l-3.14,-7.57l-3.38,-7.37l-3.63,-7.22l-3.83,-6.93l-4,-6.61l-4.14,-6.24l-4.33,-5.95l-4.43,-5.52" id="svg_19" stroke="#874c6b"/>
   <path d="m526.72,393.08l0.65,-0.06l3.07,-0.39l2.27,-0.65l1.46,-0.6l6.07,-2.39l4.52,-1.44a576.52,290.75 63.2 0 1 42.55,-5.55a27.14,5.99 73 0 0 0.8,-0.28a93.15,7.02 9.9 0 0 0.16,-0.98a367.52,292.39 30.9 0 0 -30.76,-39.55a104.28,46.03 30.7 0 0 -8.94,-9.35a1.44,1.44 0 0 1 -0.44,-0.88l-0.13,-0.92" id="svg_20" stroke="#ea859c"/>
   <path d="m526.72,393.08l-0.84,-0.81" id="svg_21" stroke="#885a60"/>
   <path d="m525.88,392.27a844.94,388.53 -49.2 0 0 -40.86,-36.75" id="svg_22" stroke="#7f6f67"/>
   <path d="m485.02,355.52a18.82,2.47 -58 0 1 -0.3,-0.18" id="svg_23" stroke="#885a60"/>
   <path d="m448.94,338.23a77.7,12.39 47.5 0 0 -0.99,1.51a489.21,260.36 19 0 0 -3.13,37.51a44.03,30.65 29.8 0 0 0.61,4.77" id="svg_24" stroke="#855b34"/>
   <path d="m445.43,382.02a24.99,18.8 -58.7 0 0 -2.63,2.14a114,2.16 -46.2 0 1 -2.55,2.23a304.33,298.25 40.2 0 0 -31.13,28.48a595.39,2.04 -50.7 0 0 -6.51,7.51a76.25,39.24 -32.6 0 1 -6.76,7.29" id="svg_25" stroke="#c2a95c"/>
   <path d="m395.85,429.67l-2.35,-8.39l-1.94,-8.74l-1.5,-8.86l-1.07,-9.14l-0.63,-9.32l-0.18,-9.31l0.27,-9.38l0.71,-9.27a131.11,1.77 -84 0 1 1.76,-17.51" id="svg_26" stroke="#855b34"/>
   <path d="m392.01,338.67l-1.09,1.08" id="svg_27" stroke="#edaa24"/>
   <path d="m390.92,339.75a178.31,65.91 22.7 0 0 -10.3,5.34l-4.03,3l-3.83,3.2l-3.63,3.41l-3.42,3.59l-3.2,3.78l-2.97,3.94l-2.73,4.1l-2.48,4.24l-2.2,4.31l-1.93,4.43l-1.67,4.54l-1.4,4.64l-1.1,4.68l-0.82,4.75l-0.51,4.72l-0.22,4.77l0.06,4.59l0.34,4.63a1645.78,424.48 -18.5 0 0 21.99,55.94" id="svg_28" stroke="#8e701f"/>
   <path d="m366.87,476.35a40.1,4.43 19.2 0 1 0.02,0.67a20.84,0.13 -54.8 0 0 -0.14,0.23a823.69,126.58 -44.7 0 0 -12.06,35.99a1332.27,6.14 -83.7 0 0 -3.34,22.52" id="svg_29" stroke="#9daf40"/>
   <path d="m485.02,355.52l-0.27,0.54a1.51,1.46 -89.6 0 1 -0.65,0.66l-2.34,1.16l-5.48,2.88a266.97,227.32 -22.8 0 0 -30.79,21.33" id="svg_30" stroke="#1c3636"/>
   <path d="m445.49,382.09a1.13,0.37 79.2 0 1 -0.06,-0.07" id="svg_31" stroke="#626f57"/>
   <path d="m558.09,447.17a43.35,4.89 -38.7 0 0 0.22,0.71" id="svg_32" stroke="#814b72"/>
   <path d="m558.31,447.88a115.83,14.28 -87.4 0 0 -2.03,0.18a352.27,72.45 -30.5 0 0 -39.68,26.73a1043.13,18.08 -43 0 0 -22.31,17.34a22.08,4.11 71.6 0 1 -0.55,0.19a4.62,1.59 -57.7 0 0 -0.28,0.04" id="svg_33" stroke="#284065"/>
   <path d="m493.46,492.36a496.6,423.93 -33.6 0 1 -31.28,-51.16" id="svg_34" stroke="#2e515c"/>
   <path d="m632.75,535.22a146.57,8.3 -50 0 1 -0.71,-1.22a259.49,133.2 1.4 0 0 0.9,-18.82" id="svg_35" stroke="#5b496e"/>
   <path d="m632.94,515.18a1613.41,669.29 -12.6 0 0 -21.64,-92.15" id="svg_36" stroke="#814b72"/>
   <path d="m632.94,515.18a22.27,2.51 -67 0 0 -0.09,-0.68a92.26,2.27 86 0 0 -0.42,0.25a61.7,14.23 22.6 0 1 -0.91,1.8a118.27,68.9 49.8 0 1 -7.56,6.15l-6.1,3.58l-5.38,2.6l-5.15,1.88l-5.05,1.17a200.49,115.15 -83.2 0 1 -16.41,0.68a390.91,8.82 16 0 1 -9.94,-1.58" id="svg_37" stroke="#b773b1"/>
   <path d="m575.93,531.03a370.97,204.01 6.7 0 0 -1.34,-29.09" id="svg_38" stroke="#814b72"/>
   <path d="m574.59,501.94a515.23,53.83 -87.5 0 0 -6,-26a659.02,44.84 58.3 0 0 -10.28,-28.06" id="svg_39" stroke="#846aa8"/>
   <path d="m611.53,602.13a85.84,9.25 -2 0 1 0.04,-1.31a434.09,212.28 25.8 0 0 12.98,-27.07a486.77,2.83 -77.2 0 0 2.57,-9.49a80.24,29.05 89.4 0 0 2.11,-9.59a129.08,1.71 -79.5 0 1 3.33,-17.94" id="svg_40" stroke="#a58ac0"/>
   <path d="m632.56,536.73a34.77,10.53 19.6 0 0 0.19,-1.51" id="svg_41" stroke="#b773b1"/>
   <path d="m632.75,535.22l5.76,-3.64l5.41,-4.25l4.89,-4.73l4.48,-5.32l3.95,-5.78l3.37,-6.16l2.89,-6.68l2.29,-6.98l1.72,-7.37l1.12,-7.57a1289.87,333.07 -16.6 0 0 -7,-47.03" id="svg_42" stroke="#814b72"/>
   <path d="m525.88,392.27a129.36,11.16 -76.2 0 1 -2.15,2.21l-7.77,4.26l-7.77,4.64l-7.63,4.94l-7.62,5.3l-7.52,5.64l-7.51,6l-7.49,6.38l-7.45,6.74l-0.74,1.04l-0.14,0.73l0.09,1.05" id="svg_43" stroke="#1c3636"/>
   <path d="m462.18,441.2l-0.88,-0.93" id="svg_44" stroke="#256663"/>
   <path d="m461.3,440.27a597.11,359.41 -21.4 0 1 -14.67,-48.78a83.44,39.39 -73.4 0 1 -1.14,-9.4" id="svg_45" stroke="#59845e"/>
   <path d="m395.85,429.67l-0.04,1.85" id="svg_46" stroke="#626f57"/>
   <path d="m395.81,431.52a600.67,366.96 18.4 0 0 -28.51,44.57a33.32,1.45 -7.2 0 1 -0.43,0.26" id="svg_47" stroke="#346050"/>
   <path d="m461.3,440.27a792.76,460.52 33.1 0 0 -39.04,52.24" id="svg_48" stroke="#6b9f84"/>
   <path d="m422.26,492.51a3.16,2.19 73.7 0 1 -0.29,0.11a40.62,3.83 -65.3 0 1 -0.49,-0.23a260.65,134.27 64.7 0 1 -15.87,-33.27a1742.23,9.77 73.1 0 1 -9.8,-27.6" id="svg_49" stroke="#71ae78"/>
   <path d="m422.26,492.51a50.36,4.49 -33.5 0 0 -0.54,1.11" id="svg_50" stroke="#3d907d"/>
   <path d="m421.72,493.62a833.3,293.96 21.7 0 0 -13.46,39.38a190.21,80.6 -30.8 0 0 -0.15,12.93" id="svg_51" stroke="#346050"/>
   <path d="m408.11,545.93a654.14,217.25 -15.5 0 0 6.59,30.05a86.68,14.69 -21.6 0 1 0.05,2.21" id="svg_52" stroke="#2a906b"/>
   <path d="m414.75,578.19a79.38,9.45 -11.8 0 1 -2.99,-0.7a448.01,163.91 -13.7 0 1 -29.49,-14.71a490.7,166.59 77.2 0 1 -27.17,-21.62a24.35,18.25 -71 0 1 -1.82,-2.03a22.69,16.28 5.9 0 0 -1.75,-2.02" id="svg_53" stroke="#4ba6a6"/>
   <path d="m493.46,492.36a42.86,6.09 15.3 0 0 0.89,1.12" id="svg_54" stroke="#317092"/>
   <path d="m494.35,493.48a146.62,11.59 -75.1 0 0 -1.89,0.74a1629.66,27.45 -38.2 0 1 -42.09,37.9a130.41,10.73 13.8 0 0 -0.13,1.53" id="svg_55" stroke="#4597b1"/>
   <path d="m450.24,533.65a163.99,7.79 88.4 0 1 -1.14,-1.48" id="svg_56" stroke="#238177"/>
   <path d="m449.1,532.17a108.94,15.53 52.8 0 1 -9.45,-12.05a222.04,204.17 56.6 0 1 -17.46,-26.1a20.01,3.67 -16.3 0 0 -0.47,-0.4" id="svg_57" stroke="#2e515c"/>
   <path d="m574.59,501.94a349,156.73 -34.6 0 0 -39.48,29.41" id="svg_58" stroke="#284065"/>
   <path d="m535.11,531.35a72.6,1.34 10 0 0 -0.37,-0.32" id="svg_59" stroke="#4c7fb4"/>
   <path d="m534.74,531.03a810.17,389.96 -46.8 0 1 -40.39,-37.55" id="svg_60" stroke="#3f86bb"/>
   <path d="m632.56,536.73a133.62,8.79 -76.3 0 0 -1.06,-0.9l-2.89,1.02l-3.85,1.69l-3.32,1.44a1168.47,340.2 81.9 0 1 -47.73,6.08" id="svg_61" stroke="#7e88bd"/>
   <path d="m575.93,531.03a224.57,11.18 75.6 0 1 -0.29,5.15a116.87,46.16 67 0 0 -1.93,9.88" id="svg_62" stroke="#5b496e"/>
   <path d="m573.71,546.06a881.99,291.75 -66.2 0 1 -38.6,-14.71" id="svg_63" stroke="#49607e"/>
   <path d="m609.94,602.87a548.74,304.05 -70.8 0 1 -44.68,-0.15a432.85,7.02 15.5 0 1 -10.93,-2.01a79.96,38.82 15.6 0 0 -10.97,-1.93" id="svg_64" stroke="#60a6d3"/>
   <path d="m543.36,598.78a77.63,70.84 -64.8 0 0 -9,-4.4l-9.12,-3.62a536.47,328.43 -62.2 0 1 -39.81,-24.02" id="svg_65" stroke="#49607e"/>
   <path d="m415.54,579.54a2527.02,444.66 -54.5 0 0 49.43,38.99a592.01,210.82 86.1 0 0 30.02,2.74a1782.23,376.59 68.4 0 0 48.37,-22.49" id="svg_66" stroke="#3c6785"/>
   <path d="m485.43,566.74a79.83,7.78 -89.8 0 0 -1.1,0.32a34.59,3.27 -64.6 0 1 -0.82,0.67a508.98,243.6 86.3 0 1 -33.5,11.37a602.41,224.73 64.6 0 1 -34.47,0.44" id="svg_67" stroke="#1b514a"/>
   <path d="m415.54,579.54a157.49,2.31 46.9 0 0 -0.79,-1.35" id="svg_68" stroke="#3297a0"/>
   <path d="m449.1,532.17a63.23,4.24 67 0 1 -0.25,0.94a819.93,230.48 66.6 0 1 -30.11,12.49a146.22,59.23 45.9 0 1 -10.63,0.33" id="svg_69" stroke="#1b514a"/>
   <path d="m534.74,531.03l-1.15,1.36l-1.09,1.28l-1.01,0.85l-0.11,0.08l-1.34,0.87l-5.42,3.67l-3.81,3.04a65.15,47.08 -8.6 0 1 -6.61,5.11a183.4,7.1 -35.8 0 1 -16.58,11.15a214.88,18.7 -44.7 0 0 -11.79,8.38a10.17,1.14 78.6 0 1 -0.16,0.02l-0.24,-0.1" id="svg_70" stroke="#60a6d3"/>
   <path d="m485.43,566.74a16.48,10.29 16.2 0 0 -1.52,-1.37a356.11,326.29 -56.8 0 1 -33.67,-31.72" id="svg_71" stroke="#3297a0"/>
  </g>
  <path d="m675.7,359.91a150.54,8.29 36.8 0 0 -14.66,-10.15a319.01,208.31 -63.2 0 0 -25.97,-13.92a289.65,15.53 8.3 0 0 -11.26,-3.78a98.62,1.52 16 0 1 -11.4,-3.39a888.39,276.24 -46.1 0 0 -23.61,-31.73a2495.43,447.69 -69.3 0 0 -60.06,-20.17a1150.51,303.14 78 0 0 -40.98,13.32l0.64,0.24l-7.8,-3.65l-7.9,-3.2l-8.06,-2.78l-8.03,-2.28l-7.97,-1.78l-7.81,-1.25l-7.74,-0.75l-7.51,-0.22l-1.21,-0.34l-0.36,-0.15a1265.92,424.36 59.6 0 1 47.27,-37.89a1947.78,532.6 73 0 1 73.95,-15.65a310.76,86.81 -27.4 0 1 19.95,2.46a1301.23,398.44 -46.5 0 1 54.22,24.26a1975.84,515.13 -38.3 0 1 44.95,57.33a1125.35,400.1 -13.8 0 1 11.35,55.47z" fill="#dd2e35" id="svg_72"/>
  <path d="m424.01,273.93l0.36,0.15l1.21,0.34l7.51,0.22l7.74,0.75l7.81,1.25l7.97,1.78l8.03,2.28l8.06,2.78l7.9,3.2l7.8,3.65l-0.77,0.18l-0.94,0.27l-0.4,0.24a1567.7,418.93 39.1 0 0 -37.41,45.94a995.57,323.98 -89.4 0 0 -45.81,-0.96l-4.25,1.08l-3.89,1.03l-2.92,0.56a53.93,7.16 -54.4 0 1 0.16,-1.92a1201.43,387.28 33.3 0 1 21.93,-51.02a620.44,6.55 -46.9 0 1 8.45,-10.36a72.16,5.08 -4.7 0 0 -0.07,-0.72l-0.46,-0.38l1.99,-0.34z" fill="#ec8327" id="svg_73"/>
  <path d="m422.02,274.27l0.46,0.38a72.16,5.08 -4.7 0 1 0.07,0.72a620.44,6.55 -46.9 0 0 -8.45,10.36a1201.43,387.28 33.3 0 0 -21.93,51.02a53.93,7.16 -54.4 0 0 -0.16,1.92l-1.09,1.08a178.31,65.91 22.7 0 0 -10.3,5.34l-4.03,3l-3.83,3.2l-3.63,3.41l-3.42,3.59l-3.2,3.78l-2.97,3.94l-2.73,4.1l-2.48,4.24l-2.2,4.31l-1.93,4.43l-1.67,4.54l-1.4,4.64l-1.1,4.68l-0.82,4.75l-0.51,4.72l-0.22,4.77l0.06,4.59l0.34,4.63a1645.78,424.48 -18.5 0 0 21.99,55.94a40.1,4.43 19.2 0 1 0.02,0.67a20.84,0.13 -54.8 0 0 -0.14,0.23a823.69,126.58 -44.7 0 0 -12.06,35.99a1332.27,6.14 -83.7 0 0 -3.34,22.52l-6.34,-5.69l-5.97,-5.72l-5.66,-5.83l-5.3,-5.86l-5,-5.98l-4.65,-6.01l-4.41,-6.21l-4.06,-6.26l-4.46,-7.73l-3.95,-7.92l-3.45,-8.2l-2.92,-8.37l-1.93,-6.75l-1.59,-6.83l-1.25,-6.92l-0.9,-6.99l-0.56,-7.05l-0.22,-7.11l0.13,-7.15l0.47,-7.19l0.89,-7.57l1.31,-7.49l1.73,-7.49l2.13,-7.38l2.53,-7.23l2.92,-7.08l3.3,-6.9l3.66,-6.7l4.02,-6.48l4.37,-6.25l4.64,-5.92l4.97,-5.66l5.27,-5.36l5.58,-5.07l5.79,-4.69l6.08,-4.38a1337.48,431.61 63.2 0 1 56.97,-22.54a192.12,80.01 -41.7 0 1 16.53,-1.53z" fill="#f6bf0f" id="svg_74"/>
  <path d="m612.41,328.67a1347.83,453.7 83.3 0 0 -64.41,1.37l-1.09,-0.18a462.33,254.13 -83.3 0 0 -31.31,-24.96a447.04,108.43 2.3 0 0 -27.84,-14.81a1150.51,303.14 78 0 1 40.98,-13.32a2495.43,447.69 -69.3 0 1 60.06,20.17a888.39,276.24 -46.1 0 1 23.61,31.73z" fill="#25212f" id="svg_75"/>
  <path d="m488.4,290.33l-0.64,-0.24a447.04,108.43 2.3 0 1 27.84,14.81a462.33,254.13 -83.3 0 1 31.31,24.96a136.61,5.76 -19.5 0 1 -17.17,5.79a102.26,19.1 -7.3 0 0 -8.86,3.24l-11.15,4.7l-9.14,4.32l-3.36,1.72l-7.14,3.55l-5.37,2.16l-9.92,-5.99l-8.91,-4.67l-8.53,-3.67l-4.26,-1.52l-4.16,-1.26l-0.06,-1.27a1567.7,418.93 39.1 0 1 37.41,-45.94l0.4,-0.24l0.94,-0.27l0.77,-0.18z" fill="#f6bf0f" id="svg_76"/>
  <path d="m612.41,328.67a98.62,1.52 16 0 0 11.4,3.39a289.65,15.53 8.3 0 1 11.26,3.78a319.01,208.31 -63.2 0 1 25.97,13.92a150.54,8.29 36.8 0 1 14.66,10.15a1.44,0.98 -16 0 0 -0.2,0.03a144.32,26.26 21.2 0 0 -1.09,3.56a312.43,23.88 71.7 0 1 -0.19,9.93a167.2,7.79 -83.4 0 0 -2.72,16.71a301.24,153.57 52.2 0 1 -6.33,24.77a135.89,26.32 75.4 0 0 -1.77,7.1a62.18,43.34 -48.7 0 1 -1.77,7.7l-3.67,-6.79l-4.11,-6.22l-4.61,-5.77l-5.04,-5.22l-5.16,-4.46l-5.52,-3.98l-5.96,-3.58l-6.29,-3.11l-6.79,-2.71l-7.1,-2.24l-7.56,-1.82l-7.84,-1.36a31.36,10.04 71.6 0 0 -1.47,0.06a0.4,0.4 0 0 0 -0.24,0.6a384.48,316.46 -14.8 0 1 21.03,39.92a162.42,8.23 14.8 0 1 -1.67,0.76a43.16,4.08 8.1 0 0 -1.75,0.31a775.62,372.45 65 0 0 -47.78,22.17a63.04,0.28 -44.3 0 0 -0.61,0.54a68.16,9.74 57.8 0 1 -1.4,0.36a27.35,5.31 -62.7 0 1 -0.49,-0.68l-3.14,-7.57l-3.38,-7.37l-3.63,-7.22l-3.83,-6.93l-4,-6.61l-4.14,-6.24l-4.33,-5.95l-4.43,-5.52l0.65,-0.06l3.07,-0.39l2.27,-0.65l1.46,-0.6l6.07,-2.39l4.52,-1.44a576.52,290.75 63.2 0 1 42.55,-5.55a27.14,5.99 73 0 0 0.8,-0.28a93.15,7.02 9.9 0 0 0.16,-0.98a367.52,292.39 30.9 0 0 -30.76,-39.55a104.28,46.03 30.7 0 0 -8.94,-9.35a1.44,1.44 0 0 1 -0.44,-0.88l-0.13,-0.92a1347.83,453.7 83.3 0 1 64.41,-1.37z" fill="#e877a6" id="svg_77"/>
  <path d="m546.91,329.86l1.09,0.18l0.13,0.92a1.44,1.44 0 0 0 0.44,0.88a104.28,46.03 30.7 0 1 8.94,9.35a367.52,292.39 30.9 0 1 30.76,39.55a93.15,7.02 9.9 0 1 -0.16,0.98a27.14,5.99 73 0 1 -0.8,0.28a576.52,290.75 63.2 0 0 -42.55,5.55l-4.52,1.44l-6.07,2.39l-1.46,0.6l-2.27,0.65l-3.07,0.39l-0.65,0.06l-0.84,-0.81a844.94,388.53 -49.2 0 0 -40.86,-36.75a18.82,2.47 -58 0 1 -0.3,-0.18l5.37,-2.16l7.14,-3.55l3.36,-1.72l9.14,-4.32l11.15,-4.7a102.26,19.1 -7.3 0 1 8.86,-3.24a136.61,5.76 -19.5 0 0 17.17,-5.79z" fill="#eb9391" id="svg_78"/>
  <path d="m448.88,336.96l0.06,1.27a77.7,12.39 47.5 0 0 -0.99,1.51a489.21,260.36 19 0 0 -3.13,37.51a44.03,30.65 29.8 0 0 0.61,4.77a24.99,18.8 -58.7 0 0 -2.63,2.14a114,2.16 -46.2 0 1 -2.55,2.23a304.33,298.25 40.2 0 0 -31.13,28.48a595.39,2.04 -50.7 0 0 -6.51,7.51a76.25,39.24 -32.6 0 1 -6.76,7.29l-2.35,-8.39l-1.94,-8.74l-1.5,-8.86l-1.07,-9.14l-0.63,-9.32l-0.18,-9.31l0.27,-9.38l0.71,-9.27a131.11,1.77 -84 0 1 1.76,-17.51l1.09,-1.08l2.92,-0.56l3.89,-1.03l4.25,-1.08a995.57,323.98 -89.4 0 1 45.81,0.96z" fill="#e49539" id="svg_79"/>
  <path d="m448.94,338.23l4.16,1.26l4.26,1.52l8.53,3.67l8.91,4.67l9.92,5.99a18.82,2.47 -58 0 0 0.3,0.18l-0.27,0.54a1.51,1.46 -89.6 0 1 -0.65,0.66l-2.34,1.16l-5.48,2.88a266.97,227.32 -22.8 0 0 -30.79,21.33a1.13,0.37 79.2 0 1 -0.06,-0.07a44.03,30.65 29.8 0 1 -0.61,-4.77a489.21,260.36 19 0 1 3.13,-37.51a77.7,12.39 47.5 0 1 0.99,-1.51z" fill="#25212f" id="svg_80"/>
  <path d="m390.92,339.75a131.11,1.77 -84 0 0 -1.76,17.51l-0.71,9.27l-0.27,9.38l0.18,9.31l0.63,9.32l1.07,9.14l1.5,8.86l1.94,8.74l2.35,8.39l-0.04,1.85a600.67,366.96 18.4 0 0 -28.51,44.57a33.32,1.45 -7.2 0 1 -0.43,0.26a1645.78,424.48 -18.5 0 1 -21.99,-55.94l-0.34,-4.63l-0.06,-4.59l0.22,-4.77l0.51,-4.72l0.82,-4.75l1.1,-4.68l1.4,-4.64l1.67,-4.54l1.93,-4.43l2.2,-4.31l2.48,-4.24l2.73,-4.1l2.97,-3.94l3.2,-3.78l3.42,-3.59l3.63,-3.41l3.83,-3.2l4.03,-3a178.31,65.91 22.7 0 1 10.3,-5.34z" fill="#25212f" id="svg_81"/>
  <path d="m485.02,355.52a844.94,388.53 -49.2 0 1 40.86,36.75a129.36,11.16 -76.2 0 1 -2.15,2.21l-7.77,4.26l-7.77,4.64l-7.63,4.94l-7.62,5.3l-7.52,5.64l-7.51,6l-7.49,6.38l-7.45,6.74l-0.74,1.04l-0.14,0.73l0.09,1.05l-0.88,-0.93a597.11,359.41 -21.4 0 1 -14.67,-48.78a83.44,39.39 -73.4 0 1 -1.14,-9.4a266.97,227.32 -22.8 0 1 30.79,-21.33l5.48,-2.88l2.34,-1.16a1.51,1.46 -89.6 0 0 0.65,-0.66l0.27,-0.54z" fill="#134b3d" id="svg_82"/>
  <path d="m675.5,359.94a351.94,61.66 24.6 0 1 16.4,16.16a1495.78,453.45 -30.1 0 1 30.45,56.47l1.99,8.26l1.47,8.33l0.97,8.49l0.46,8.51l-0.07,8.52l-0.59,8.47l-1.11,8.42l-1.62,8.33l-2.12,8.14l-2.63,7.99l-3.09,7.73l-3.59,7.53l-4.01,7.19l-4.47,6.95l-4.88,6.59l-5.34,6.3a2185.05,535.64 52.5 0 1 -64.97,39.73a483.3,26.14 -25 0 1 -17.22,4.08a85.84,9.25 -2 0 1 0.04,-1.31a434.09,212.28 25.8 0 0 12.98,-27.07a486.77,2.83 -77.2 0 0 2.57,-9.49a80.24,29.05 89.4 0 0 2.11,-9.59a129.08,1.71 -79.5 0 1 3.33,-17.94a34.77,10.53 19.6 0 0 0.19,-1.51l5.76,-3.64l5.41,-4.25l4.89,-4.73l4.48,-5.32l3.95,-5.78l3.37,-6.16l2.89,-6.68l2.29,-6.98l1.72,-7.37l1.12,-7.57a1289.87,333.07 -16.6 0 0 -7,-47.03a62.18,43.34 -48.7 0 0 1.77,-7.7a135.89,26.32 75.4 0 1 1.77,-7.1a301.24,153.57 52.2 0 0 6.33,-24.77a167.2,7.79 -83.4 0 1 2.72,-16.71a312.43,23.88 71.7 0 0 0.19,-9.93a144.32,26.26 21.2 0 1 1.09,-3.56z" fill="#dd75b4" id="svg_83"/>
  <path d="m445.43,382.02a1.13,0.37 79.2 0 0 0.06,0.07a83.44,39.39 -73.4 0 0 1.14,9.4a597.11,359.41 -21.4 0 0 14.67,48.78a792.76,460.52 33.1 0 0 -39.04,52.24a3.16,2.19 73.7 0 1 -0.29,0.11a40.62,3.83 -65.3 0 1 -0.49,-0.23a260.65,134.27 64.7 0 1 -15.87,-33.27a1742.23,9.77 73.1 0 1 -9.8,-27.6l0.04,-1.85a76.25,39.24 -32.6 0 0 6.76,-7.29a595.39,2.04 -50.7 0 1 6.51,-7.51a304.33,298.25 40.2 0 1 31.13,-28.48a114,2.16 -46.2 0 0 2.55,-2.23a24.99,18.8 -58.7 0 1 2.63,-2.14z" fill="#9fbc7f" id="svg_84"/>
  <path d="m661.63,429.71a1289.87,333.07 -16.6 0 1 7,47.03l-1.12,7.57l-1.72,7.37l-2.29,6.98l-2.89,6.68l-3.37,6.16l-3.95,5.78l-4.48,5.32l-4.89,4.73l-5.41,4.25l-5.76,3.64a146.57,8.3 -50 0 1 -0.71,-1.22a259.49,133.2 1.4 0 0 0.9,-18.82a1613.41,669.29 -12.6 0 0 -21.64,-92.15a384.48,316.46 -14.8 0 0 -21.03,-39.92a0.4,0.4 0 0 1 0.24,-0.6a31.36,10.04 71.6 0 1 1.47,-0.06l7.84,1.36l7.56,1.82l7.1,2.24l6.79,2.71l6.29,3.11l5.96,3.58l5.52,3.98l5.16,4.46l5.04,5.22l4.61,5.77l4.11,6.22l3.67,6.79z" fill="#25212f" id="svg_85"/>
  <path d="m525.88,392.27l0.84,0.81l4.43,5.52l4.33,5.95l4.14,6.24l4,6.61l3.83,6.93l3.63,7.22l3.38,7.37l3.14,7.57a27.35,5.31 -62.7 0 0 0.49,0.68a43.35,4.89 -38.7 0 0 0.22,0.71a115.83,14.28 -87.4 0 0 -2.03,0.18a352.27,72.45 -30.5 0 0 -39.68,26.73a1043.13,18.08 -43 0 0 -22.31,17.34a22.08,4.11 71.6 0 1 -0.55,0.19a4.62,1.59 -57.7 0 0 -0.28,0.04a496.6,423.93 -33.6 0 1 -31.28,-51.16l-0.09,-1.05l0.14,-0.73l0.74,-1.04l7.45,-6.74l7.49,-6.38l7.51,-6l7.52,-5.64l7.62,-5.3l7.63,-4.94l7.77,-4.64l7.77,-4.26a129.36,11.16 -76.2 0 0 2.15,-2.21z" fill="#25212f" id="svg_86"/>
  <path d="m611.3,423.03a1613.41,669.29 -12.6 0 1 21.64,92.15a22.27,2.51 -67 0 0 -0.09,-0.68a92.26,2.27 86 0 0 -0.42,0.25a61.7,14.23 22.6 0 1 -0.91,1.8a118.27,68.9 49.8 0 1 -7.56,6.15l-6.1,3.58l-5.38,2.6l-5.15,1.88l-5.05,1.17a200.49,115.15 -83.2 0 1 -16.41,0.68a390.91,8.82 16 0 1 -9.94,-1.58a370.97,204.01 6.7 0 0 -1.34,-29.09a515.23,53.83 -87.5 0 0 -6,-26a659.02,44.84 58.3 0 0 -10.28,-28.06a43.35,4.89 -38.7 0 1 -0.22,-0.71a68.16,9.74 57.8 0 0 1.4,-0.36a63.04,0.28 -44.3 0 1 0.61,-0.54a775.62,372.45 65 0 1 47.78,-22.17a43.16,4.08 8.1 0 1 1.75,-0.31a162.42,8.23 14.8 0 0 1.67,-0.76z" fill="#dd75b4" id="svg_87"/>
  <path d="m395.81,431.52a1742.23,9.77 73.1 0 0 9.8,27.6a260.65,134.27 64.7 0 0 15.87,33.27a40.62,3.83 -65.3 0 0 0.49,0.23a3.16,2.19 73.7 0 0 0.29,-0.11a50.36,4.49 -33.5 0 0 -0.54,1.11a833.3,293.96 21.7 0 0 -13.46,39.38a190.21,80.6 -30.8 0 0 -0.15,12.93a654.14,217.25 -15.5 0 0 6.59,30.05a86.68,14.69 -21.6 0 1 0.05,2.21a79.38,9.45 -11.8 0 1 -2.99,-0.7a448.01,163.91 -13.7 0 1 -29.49,-14.71a490.7,166.59 77.2 0 1 -27.17,-21.62a24.35,18.25 -71 0 1 -1.82,-2.03a22.69,16.28 5.9 0 0 -1.75,-2.02l-0.18,-1.35a1332.27,6.14 -83.7 0 1 3.34,-22.52a823.69,126.58 -44.7 0 1 12.06,-35.99a20.84,0.13 -54.8 0 1 0.14,-0.23a40.1,4.43 19.2 0 0 -0.02,-0.67a33.32,1.45 -7.2 0 0 0.43,-0.26a600.67,366.96 18.4 0 1 28.51,-44.57z" fill="#439f71" id="svg_88"/>
  <path d="m461.3,440.27l0.88,0.93a496.6,423.93 -33.6 0 0 31.28,51.16a42.86,6.09 15.3 0 0 0.89,1.12a146.62,11.59 -75.1 0 0 -1.89,0.74a1629.66,27.45 -38.2 0 1 -42.09,37.9a130.41,10.73 13.8 0 0 -0.13,1.53a163.99,7.79 88.4 0 1 -1.14,-1.48a108.94,15.53 52.8 0 1 -9.45,-12.05a222.04,204.17 56.6 0 1 -17.46,-26.1a20.01,3.67 -16.3 0 0 -0.47,-0.4a50.36,4.49 -33.5 0 1 0.54,-1.11a792.76,460.52 33.1 0 1 39.04,-52.24z" fill="#368188" id="svg_89"/>
  <path d="m558.31,447.88a659.02,44.84 58.3 0 1 10.28,28.06a515.23,53.83 -87.5 0 1 6,26a349,156.73 -34.6 0 0 -39.48,29.41a72.6,1.34 10 0 0 -0.37,-0.32a810.17,389.96 -46.8 0 1 -40.39,-37.55a42.86,6.09 15.3 0 1 -0.89,-1.12a4.62,1.59 -57.7 0 1 0.28,-0.04a22.08,4.11 71.6 0 0 0.55,-0.19a1043.13,18.08 -43 0 1 22.31,-17.34a352.27,72.45 -30.5 0 1 39.68,-26.73a115.83,14.28 -87.4 0 1 2.03,-0.18z" fill="#2b5e9b" id="svg_90"/>
  <path d="m494.35,493.48a810.17,389.96 -46.8 0 0 40.39,37.55l-1.15,1.36l-1.09,1.28l-1.01,0.85l-0.11,0.08l-1.34,0.87l-5.42,3.67l-3.81,3.04a65.15,47.08 -8.6 0 1 -6.61,5.11a183.4,7.1 -35.8 0 1 -16.58,11.15a214.88,18.7 -44.7 0 0 -11.79,8.38a10.17,1.14 78.6 0 1 -0.16,0.02l-0.24,-0.1a16.48,10.29 16.2 0 0 -1.52,-1.37a356.11,326.29 -56.8 0 1 -33.67,-31.72a130.41,10.73 13.8 0 1 0.13,-1.53a1629.66,27.45 -38.2 0 0 42.09,-37.9a146.62,11.59 -75.1 0 1 1.89,-0.74z" fill="#53adda" id="svg_91"/>
  <path d="m421.72,493.62a20.01,3.67 -16.3 0 1 0.47,0.4a222.04,204.17 56.6 0 0 17.46,26.1a108.94,15.53 52.8 0 0 9.45,12.05a63.23,4.24 67 0 1 -0.25,0.94a819.93,230.48 66.6 0 1 -30.11,12.49a146.22,59.23 45.9 0 1 -10.63,0.33a190.21,80.6 -30.8 0 1 0.15,-12.93a833.3,293.96 21.7 0 1 13.46,-39.38z" fill="#25212f" id="svg_92"/>
  <path d="m574.59,501.94a370.97,204.01 6.7 0 1 1.34,29.09a224.57,11.18 75.6 0 1 -0.29,5.15a116.87,46.16 67 0 0 -1.93,9.88a881.99,291.75 -66.2 0 1 -38.6,-14.71a349,156.73 -34.6 0 1 39.48,-29.41z" fill="#25212f" id="svg_93"/>
  <path d="m632.94,515.18a259.49,133.2 1.4 0 1 -0.9,18.82a146.57,8.3 -50 0 0 0.71,1.22a34.77,10.53 19.6 0 1 -0.19,1.51a133.62,8.79 -76.3 0 0 -1.06,-0.9l-2.89,1.02l-3.85,1.69l-3.32,1.44a1168.47,340.2 81.9 0 1 -47.73,6.08a116.87,46.16 67 0 1 1.93,-9.88a224.57,11.18 75.6 0 0 0.29,-5.15a390.91,8.82 16 0 0 9.94,1.58a200.49,115.15 -83.2 0 0 16.41,-0.68l5.05,-1.17l5.15,-1.88l5.38,-2.6l6.1,-3.58a118.27,68.9 49.8 0 0 7.56,-6.15a61.7,14.23 22.6 0 0 0.91,-1.8a92.26,2.27 86 0 1 0.42,-0.25a22.27,2.51 -67 0 1 0.09,0.68z" fill="#9070ad" id="svg_94"/>
  <path d="m534.74,531.03a72.6,1.34 10 0 1 0.37,0.32a881.99,291.75 -66.2 0 0 38.6,14.71a1168.47,340.2 81.9 0 0 47.73,-6.08l3.32,-1.44l3.85,-1.69l2.89,-1.02a133.62,8.79 -76.3 0 1 1.06,0.9a129.08,1.71 -79.5 0 0 -3.33,17.94a80.24,29.05 89.4 0 1 -2.11,9.59a486.77,2.83 -77.2 0 1 -2.57,9.49a434.09,212.28 25.8 0 1 -12.98,27.07a85.84,9.25 -2 0 0 -0.04,1.31a267.4,1.81 -36.1 0 1 -1.59,0.74a548.74,304.05 -70.8 0 1 -44.68,-0.15a432.85,7.02 15.5 0 1 -10.93,-2.01a79.96,38.82 15.6 0 0 -10.97,-1.93a77.63,70.84 -64.8 0 0 -9,-4.4l-9.12,-3.62a536.47,328.43 -62.2 0 1 -39.81,-24.02l0.24,0.1a10.17,1.14 78.6 0 0 0.16,-0.02a214.88,18.7 -44.7 0 1 11.79,-8.38a183.4,7.1 -35.8 0 0 16.58,-11.15a65.15,47.08 -8.6 0 0 6.61,-5.11l3.81,-3.04l5.42,-3.67l1.34,-0.87l0.11,-0.08l1.01,-0.85l1.09,-1.28l1.15,-1.36z" fill="#6c9fcc" id="svg_95"/>
  <path d="m449.1,532.17a163.99,7.79 88.4 0 0 1.14,1.48a356.11,326.29 -56.8 0 0 33.67,31.72a16.48,10.29 16.2 0 1 1.52,1.37a79.83,7.78 -89.8 0 0 -1.1,0.32a34.59,3.27 -64.6 0 1 -0.82,0.67a508.98,243.6 86.3 0 1 -33.5,11.37a602.41,224.73 64.6 0 1 -34.47,0.44a157.49,2.31 46.9 0 0 -0.79,-1.35a86.68,14.69 -21.6 0 0 -0.05,-2.21a654.14,217.25 -15.5 0 1 -6.59,-30.05a146.22,59.23 45.9 0 0 10.63,-0.33a819.93,230.48 66.6 0 0 30.11,-12.49a63.23,4.24 67 0 0 0.25,-0.94z" fill="#108065" id="svg_96"/>
  <path d="m351.53,537.11a22.69,16.28 5.9 0 1 1.75,2.02a24.35,18.25 -71 0 0 1.82,2.03a490.7,166.59 77.2 0 0 27.17,21.62a448.01,163.91 -13.7 0 0 29.49,14.71a79.38,9.45 -11.8 0 0 2.99,0.7a157.49,2.31 46.9 0 1 0.79,1.35a2527.02,444.66 -54.5 0 0 49.43,38.99a592.01,210.82 86.1 0 0 30.02,2.74a1782.23,376.59 68.4 0 0 48.37,-22.49a79.96,38.82 15.6 0 1 10.97,1.93a432.85,7.02 15.5 0 0 10.93,2.01a548.74,304.05 -70.8 0 0 44.68,0.15a1602.11,487.76 42.2 0 1 -47.84,49.73a1969.45,517.05 73.8 0 1 -69.54,22.73l-8.11,0.16l-8.08,-0.32l-8.12,-0.81l-8.04,-1.29l-7.97,-1.76l-7.84,-2.24l-7.69,-2.69l-7.52,-3.13l-7.33,-3.58l-7.1,-4.02l-6.78,-4.37l-6.51,-4.79l-6.19,-5.15l-5.89,-5.53l-5.5,-5.84l-5.15,-6.19a279.74,87.92 89.8 0 1 -11.22,-17.36a1410.18,430.95 -19.7 0 1 -16.22,-58.91a91.31,53.18 -56.9 0 1 0.23,-10.4z" fill="#53adda" id="svg_97"/>
  <path d="m485.43,566.74a536.47,328.43 -62.2 0 0 39.81,24.02l9.12,3.62a77.63,70.84 -64.8 0 1 9,4.4a1782.23,376.59 68.4 0 1 -48.37,22.49a592.01,210.82 86.1 0 1 -30.02,-2.74a2527.02,444.66 -54.5 0 1 -49.43,-38.99a602.41,224.73 64.6 0 0 34.47,-0.44a508.98,243.6 86.3 0 0 33.5,-11.37a34.59,3.27 -64.6 0 0 0.82,-0.67a79.83,7.78 -89.8 0 1 1.1,-0.32z" fill="#25212f" id="svg_98"/>
 </g>
</svg>