<svg data-v-0dd9719b="" version="1.0" xmlns="http://www.w3.org/2000/svg" xmlns:xlink="http://www.w3.org/1999/xlink" width="100%" height="100%" viewBox="0 0 340.000000 250.000000" preserveAspectRatio="xMidYMid meet" color-interpolation-filters="sRGB" style="margin: auto;"> <rect data-v-0dd9719b="" x="0" y="0" width="100%" height="100%" fill="#ffffff" fill-opacity="0" class="background" style="
    background: white;
"></rect>  <g data-v-0dd9719b="" class="iconmbgsvg" transform="translate(89.9699935913086,68.74774932861328)" style="
    /* position: relative; */
    /* top: 200px; */
    background: white;
"><g fill="#000000" hollow-target="textNormalTran"><g opacity="1" transform="matrix(0.9856617079395047,0,0,0.9856617079395047,24.58653533709427,0.8065611991865325)"><g><rect fill="#000000" fill-opacity="0" stroke-width="2" x="0" y="0" width="112.5" height="112.5045001800072" class="image-rect"></rect> <svg x="0" y="0" width="112.5" height="112.5045001800072" filtersec="colorsb19932159" class="image-svg-svg primary" style="overflow: visible;"><svg xmlns="http://www.w3.org/2000/svg" viewBox="13.189994812011719 9 961.3399047851562 961.3800048828125"><path opacity=".6" fill="#00ADEE" d="M974.52 119.83C974.52 58.65 924.93 9 863.68 9H341.2c-61.24 0-110.85 49.65-110.85 110.83v522.54c0 61.24 49.61 110.83 110.85 110.83h522.48c61.25 0 110.85-49.58 110.85-110.83V119.83z"></path><path opacity=".81" fill="#00ADEE" d="M970.29 825.97c0-13.91-11.28-25.15-25.17-25.15H826.33c-13.88 0-25.2 11.25-25.2 25.15v118.79c0 13.91 11.32 25.19 25.2 25.19h118.78c13.89 0 25.17-11.28 25.17-25.19V825.97zM202.19 25.49c0-8.93-7.27-16.2-16.21-16.2h-76.62c-8.98 0-16.22 7.27-16.22 16.2v76.59c0 9 7.24 16.25 16.22 16.25h76.62c8.94 0 16.21-7.25 16.21-16.25V25.49z"></path><path opacity=".8" fill="#00ADEE" d="M612.85 459.97c0-49.35-39.96-89.29-89.29-89.29h-421.1c-49.29 0-89.27 39.94-89.27 89.29v421.08c0 49.35 39.99 89.33 89.27 89.33h421.1c49.32 0 89.29-39.98 89.29-89.33V459.97z"></path></svg></svg> <!----></g></g> <g transform="translate(0,33.21225166320801)"><g data-gra="path-name" fill-rule="" class="tp-name" opacity="1" transform="matrix(0.8105382702592007,0,0,0.8105382702592007,15.162623445357923,4.365198065315841)"><g transform="scale(1)"><g><path d="M43.29-2.32L43.29-2.32 43.35-4.51 43.35-9.52Q38.88-2.06 30.15-0.03L30.15-0.03Q27.39 0.6 23.72 0.6 20.06 0.6 16.14-0.92 12.22-2.44 9.27-5.33L9.27-5.33Q2.79-11.62 2.79-21.87L2.79-21.87Q2.79-31.67 9.65-38.47L9.65-38.47Q16.79-45.48 27.58-45.48L27.58-45.48Q33.04-45.48 37.45-43.45L37.45-43.45Q40.15-42.24 41.26-41.21 42.37-40.18 42.37-39.56 42.37-38.94 41.99-38.5 41.61-38.05 40.93-38.05 40.24-38.05 39.42-38.78L39.42-38.78Q36.98-40.94 35.12-41.61 33.26-42.28 32.15-42.56 31.04-42.85 30.15-42.97L30.15-42.97Q28.79-43.16 26.91-43.16 25.04-43.16 23.45-42.85L23.45-42.85 23.45-1.78Q23.8-1.75 24.15-1.75L24.15-1.75 24.79-1.75Q34.21-1.75 40.05-8.89L40.05-8.89Q42.05-11.33 43.35-14.66L43.35-14.66 43.35-17.71Q43.35-17.71 43.2-20.57L43.2-20.57Q43.2-22.25 44.53-22.25L44.53-22.25Q45.23-22.25 45.61-21.79 45.99-21.33 45.99-20.66L45.99-20.66 45.8-18.03 45.8-6.22 45.99-1.3Q45.99-0.54 45.56-0.1 45.13 0.35 44.56 0.35L44.56 0.35Q43.16 0.35 43.16-1.11L43.16-1.11Q43.16-1.49 43.29-2.32ZM56.46 0L56.46-44.91 72.65-44.91 72.65 0 56.46 0ZM83.31 0L83.31-44.91 96.52-44.91Q105.75-44.91 110.07-43.61L110.07-43.61Q114.99-42.08 117.67-39.7 120.35-37.32 121.88-34.79L121.88-34.79Q124.99-29.61 124.99-23.04L124.99-23.04Q124.99-12.7 117.56-6.28L117.56-6.28Q112.29-1.68 105.15-0.6L105.15-0.6Q101.18 0 94.04 0L94.04 0 83.31 0ZM99.5-42.5L99.5-2.63Q100.01-2.6 100.42-2.6L100.42-2.6 101.15-2.6Q109.75-2.6 115.84-7.97L115.84-7.97Q122.29-13.62 122.29-22.98L122.29-22.98Q122.29-28.88 119.46-33.61L119.46-33.61Q115.37-40.5 106.51-41.96L106.51-41.96Q103.63-42.43 99.5-42.5L99.5-42.5ZM161.23-2.73L161.23-2.73Q162.85-2.73 162.85-1.46L162.85-1.46Q162.85-0.89 162.15-0.44 161.45 0 159.74 0L159.74 0 132.86 0 132.86-44.91Q145.36-44.91 157.87-44.91L157.87-44.91 160.47-45Q162.85-45 162.85-43.61L162.85-43.61Q162.85-43.07 162.45-42.61 162.06-42.15 161.55-42.15L161.55-42.15Q160.72-42.15 159.8-42.34L159.8-42.34Q158.44-42.62 156.06-42.62L156.06-42.62 149.04-42.62 149.04-32.94 154.82-32.94Q154.82-32.94 158.72-33.1L158.72-33.1Q159.42-33.1 159.91-32.77 160.41-32.44 160.41-31.83L160.41-31.83Q160.41-30.5 158.63-30.5L158.63-30.5 157.26-30.53Q156.22-30.63 155.52-30.63L155.52-30.63 149.04-30.63 149.04-2.32 156.06-2.32Q158.41-2.32 159.39-2.51L159.39-2.51Q160.56-2.73 161.23-2.73Z" transform="translate(-2.7899999618530273, 45.47999954223633)"></path></g> <!----> <!----> <!----> <!----> <!----> <!----> <!----></g></g> <!----></g></g></g></svg>
